<svg xmlns="http://www.w3.org/2000/svg" width="24.47" height="22.77" viewBox="0 0 24.47 22.77">
  <path id="add" d="M24.47,2.87V14.925H22.556V2.87a.958.958,0,0,0-.957-.957H2.87a.958.958,0,0,0-.957.957v7.24L5.872,4.325,9.046,8.294l1.439-2.068,6.14,7.981v.718H14.763l-4.2-5.46L5.186,17.193,3.615,16.1,7.907,9.932,5.992,7.538,1.913,13.5v4.679a.958.958,0,0,0,.957.957h9.784v1.914H2.87A2.873,2.873,0,0,1,0,18.178V2.87A2.873,2.873,0,0,1,2.87,0H21.6a2.873,2.873,0,0,1,2.87,2.87ZM18.06,9.185a2.87,2.87,0,1,1,2.87-2.87A2.873,2.873,0,0,1,18.06,9.185Zm.957-2.87a.957.957,0,1,0-.957.957A.958.958,0,0,0,19.016,6.314Zm1.435,6.506H18.538v4.018H14.52v1.913h4.018V22.77h1.914V18.752H24.47V16.838H20.451Zm0,0" transform="translate(0 0)" fill="#707070"/>
</svg>
