<svg xmlns="http://www.w3.org/2000/svg" width="81.274" height="102.002" viewBox="0 0 81.274 102.002">
  <g id="medal" transform="translate(-52.071 0.999)">
    <g id="Group_149" data-name="Group 149" transform="translate(53.074 0.001)">
      <path id="Path_357" data-name="Path 357" d="M131.071,41.06a7.728,7.728,0,0,0-.89-9.605,4.828,4.828,0,0,1-1.235-4.34,7.728,7.728,0,0,0-4.3-8.635,4.828,4.828,0,0,1-2.719-3.6,7.728,7.728,0,0,0-7.129-6.5A4.828,4.828,0,0,1,110.961,6a7.729,7.729,0,0,0-9-3.485,4.828,4.828,0,0,1-4.435-.829,7.728,7.728,0,0,0-9.646,0,4.827,4.827,0,0,1-4.435.829,7.728,7.728,0,0,0-9,3.485A4.828,4.828,0,0,1,70.617,8.38a7.729,7.729,0,0,0-7.129,6.5,4.828,4.828,0,0,1-2.719,3.6,7.729,7.729,0,0,0-4.3,8.635,4.828,4.828,0,0,1-1.235,4.34,7.729,7.729,0,0,0-.89,9.606,4.828,4.828,0,0,1,.416,4.493,7.728,7.728,0,0,0,2.64,9.278,4.828,4.828,0,0,1,2.011,4.039,7.729,7.729,0,0,0,5.813,7.7,4.826,4.826,0,0,1,2.581,1.685L59.735,87.74a3.493,3.493,0,0,0,4.252,4.676L72.823,89.7a.565.565,0,0,1,.663.275l4.331,8.166a3.493,3.493,0,0,0,6.313-.3l8.412-20.309q.166-.006.331,0l8.412,20.309a3.493,3.493,0,0,0,6.313.3l4.331-8.166a.564.564,0,0,1,.663-.275l8.836,2.712a3.493,3.493,0,0,0,4.252-4.676l-8.071-19.485a4.826,4.826,0,0,1,2.581-1.685,7.729,7.729,0,0,0,5.813-7.7,4.827,4.827,0,0,1,2.011-4.039,7.728,7.728,0,0,0,2.64-9.278,4.832,4.832,0,0,1,.417-4.494ZM81.423,96.723a.562.562,0,0,1-1.018.048l-4.331-8.166a3.5,3.5,0,0,0-4.11-1.7l-8.836,2.712a.562.562,0,0,1-.686-.754L69.6,71.573a7.725,7.725,0,0,0,7.16,3.114,4.829,4.829,0,0,1,4.207,1.63,7.7,7.7,0,0,0,7.916,2.393Zm40.865-7.108L113.452,86.9a3.5,3.5,0,0,0-4.111,1.7l-4.331,8.166a.563.563,0,0,1-1.019-.048l-7.46-18.01a7.724,7.724,0,0,0,7.914-2.4,4.826,4.826,0,0,1,4.207-1.63,7.72,7.72,0,0,0,7.16-3.114l7.161,17.287a.563.563,0,0,1-.686.755Zm6.33-50.156a7.756,7.756,0,0,0-.669,7.217,4.811,4.811,0,0,1-1.643,5.776,7.756,7.756,0,0,0-3.231,6.488,4.811,4.811,0,0,1-3.619,4.792,7.754,7.754,0,0,0-4.789,3.658l-.008.015a7.757,7.757,0,0,0-.559,1.21,4.809,4.809,0,0,1-5.106,3.162,7.755,7.755,0,0,0-6.759,2.618,4.812,4.812,0,0,1-5.9,1.1,7.751,7.751,0,0,0-2.131-.751l-.018,0a7.749,7.749,0,0,0-2.952,0l-.01,0a7.762,7.762,0,0,0-2.136.752,4.811,4.811,0,0,1-5.9-1.1,7.755,7.755,0,0,0-6.759-2.618,4.811,4.811,0,0,1-5.106-3.162,7.768,7.768,0,0,0-.559-1.209l-.01-.018a7.754,7.754,0,0,0-4.788-3.656,4.811,4.811,0,0,1-3.619-4.792,7.756,7.756,0,0,0-3.231-6.488,4.811,4.811,0,0,1-1.643-5.776,7.756,7.756,0,0,0-.669-7.217,4.811,4.811,0,0,1,.554-5.979,7.756,7.756,0,0,0,1.984-6.971,4.811,4.811,0,0,1,2.677-5.376,7.756,7.756,0,0,0,4.368-5.784A4.811,4.811,0,0,1,70.819,11.3a7.755,7.755,0,0,0,6.163-3.816,4.812,4.812,0,0,1,5.6-2.169,7.756,7.756,0,0,0,7.125-1.332,4.811,4.811,0,0,1,6.005,0,7.755,7.755,0,0,0,7.125,1.332,4.811,4.811,0,0,1,5.6,2.169A7.756,7.756,0,0,0,114.6,11.3a4.811,4.811,0,0,1,4.438,4.046,7.757,7.757,0,0,0,4.368,5.784,4.811,4.811,0,0,1,2.677,5.376,7.755,7.755,0,0,0,1.984,6.971,4.812,4.812,0,0,1,.554,5.98Z" transform="translate(-53.074 -0.001)" fill="#fff" stroke="#fff" stroke-width="2"/>
      <path id="Path_358" data-name="Path 358" d="M108.652,79.793a1.465,1.465,0,0,0,1.633-1.275,26.313,26.313,0,0,1,52.224.012,1.465,1.465,0,0,0,2.908-.356,29.242,29.242,0,0,0-58.039-.014A1.465,1.465,0,0,0,108.652,79.793Z" transform="translate(-96.762 -42.268)" fill="#fff" stroke="#fff" stroke-width="2"/>
      <path id="Path_359" data-name="Path 359" d="M164.139,212.215a1.467,1.467,0,0,0-1.632,1.276,26.313,26.313,0,0,1-52.225.012,1.465,1.465,0,0,0-2.908.358,29.242,29.242,0,0,0,58.04-.013A1.464,1.464,0,0,0,164.139,212.215Z" transform="translate(-96.761 -170.758)" fill="#fff" stroke="#fff" stroke-width="2"/>
      <path id="Path_360" data-name="Path 360" d="M190.883,109.368a2.808,2.808,0,0,0-2.595-1.957L176.8,107l-3.941-10.8a2.835,2.835,0,0,0-5.326,0L163.6,107l-11.485.412a2.835,2.835,0,0,0-1.646,5.066l9.049,7.084-3.157,11.05a2.835,2.835,0,0,0,4.309,3.131l9.533-6.417,9.533,6.417a2.835,2.835,0,0,0,4.309-3.131l-3.157-11.05,9.049-7.084A2.808,2.808,0,0,0,190.883,109.368Zm-11.853,7.925a2.824,2.824,0,0,0-.979,3.012l3.1,10.862-9.371-6.308a2.824,2.824,0,0,0-3.167,0l-9.372,6.308,3.1-10.862a2.824,2.824,0,0,0-.978-3.012l-8.9-6.964,11.29-.405a2.824,2.824,0,0,0,2.562-1.861L170.2,97.451l3.874,10.612a2.824,2.824,0,0,0,2.562,1.861l11.29.405Z" transform="translate(-130.566 -75.915)" fill="#fff" stroke="#fff" stroke-width="2"/>
    </g>
  </g>
</svg>
