<svg xmlns="http://www.w3.org/2000/svg" width="93.75" height="100" viewBox="0 0 93.75 100">
  <g id="company" transform="translate(-16)">
    <g id="Group_148" data-name="Group 148" transform="translate(16)">
      <path id="Path_351" data-name="Path 351" d="M106.82,76.367H95.1V61.719a2.93,2.93,0,0,0-2.93-2.93H80.453V44.141a2.93,2.93,0,0,0-2.93-2.93H71.664V23.438h2.93a2.93,2.93,0,0,0,2.438-4.555L65.313,1.3a2.93,2.93,0,0,0-4.875,0L48.719,18.883a2.93,2.93,0,0,0,2.438,4.555h2.93V41.211H48.227a2.93,2.93,0,0,0-2.93,2.93V58.789H33.578a2.93,2.93,0,0,0-2.93,2.93V76.367H18.93A2.93,2.93,0,0,0,16,79.3V97.07A2.93,2.93,0,0,0,18.93,100H106.82a2.93,2.93,0,0,0,2.93-2.93V79.3A2.93,2.93,0,0,0,106.82,76.367ZM89.242,64.648V76.367H65.8V64.648ZM62.875,8.211l6.245,9.367h-.385a2.93,2.93,0,0,0-2.93,2.93v20.7H59.945v-20.7a2.93,2.93,0,0,0-2.93-2.93H56.63ZM51.156,47.07H74.594V58.789H51.156ZM36.508,64.648H59.945V76.367H36.508ZM45.3,94.141H21.859V82.227H45.3Zm29.3,0H51.156V82.227H74.594Zm29.3,0H80.453V82.227h23.438Z" transform="translate(-16)" fill="#fff"/>
    </g>
  </g>
</svg>
