<svg id="Component_43_2" data-name="Component 43 – 2" xmlns="http://www.w3.org/2000/svg" width="29.142" height="29.142" viewBox="0 0 29.142 29.142">
  <path id="Path_3" data-name="Path 3" d="M14.571,2.59a44.678,44.678,0,0,1,5.828.162,7.509,7.509,0,0,1,2.752.486A5.686,5.686,0,0,1,25.9,5.99a7.509,7.509,0,0,1,.486,2.752c0,1.457.162,1.943.162,5.828A44.676,44.676,0,0,1,26.39,20.4a7.509,7.509,0,0,1-.486,2.752A5.686,5.686,0,0,1,23.152,25.9a7.509,7.509,0,0,1-2.752.486c-1.457,0-1.943.162-5.828.162a44.676,44.676,0,0,1-5.828-.162A7.509,7.509,0,0,1,5.99,25.9a5.686,5.686,0,0,1-2.752-2.752A7.509,7.509,0,0,1,2.752,20.4c0-1.457-.162-1.943-.162-5.828a44.678,44.678,0,0,1,.162-5.828A7.509,7.509,0,0,1,3.238,5.99,5.815,5.815,0,0,1,4.371,4.371,2.737,2.737,0,0,1,5.99,3.238a7.509,7.509,0,0,1,2.752-.486,44.678,44.678,0,0,1,5.828-.162m0-2.59a47.837,47.837,0,0,0-5.99.162A10,10,0,0,0,5.019.81a6.338,6.338,0,0,0-2.59,1.619A6.338,6.338,0,0,0,.81,5.019,7.377,7.377,0,0,0,.162,8.581,47.837,47.837,0,0,0,0,14.571a47.837,47.837,0,0,0,.162,5.99A10,10,0,0,0,.81,24.123a6.338,6.338,0,0,0,1.619,2.59,6.338,6.338,0,0,0,2.59,1.619,10,10,0,0,0,3.562.648,47.837,47.837,0,0,0,5.99.162,47.837,47.837,0,0,0,5.99-.162,10,10,0,0,0,3.562-.648,6.793,6.793,0,0,0,4.209-4.209,10,10,0,0,0,.648-3.562c0-1.619.162-2.1.162-5.99a47.837,47.837,0,0,0-.162-5.99,10,10,0,0,0-.648-3.562,6.338,6.338,0,0,0-1.619-2.59A6.338,6.338,0,0,0,24.123.81,10,10,0,0,0,20.561.162,47.837,47.837,0,0,0,14.571,0m0,7.124a7.328,7.328,0,0,0-7.447,7.447,7.447,7.447,0,1,0,7.447-7.447m0,12.3a4.77,4.77,0,0,1-4.857-4.857,4.77,4.77,0,0,1,4.857-4.857,4.77,4.77,0,0,1,4.857,4.857,4.77,4.77,0,0,1-4.857,4.857M22.342,5.019A1.781,1.781,0,1,0,24.123,6.8a1.8,1.8,0,0,0-1.781-1.781" fill="#fff" fill-rule="evenodd"/>
</svg>
