<svg id="Capa_1" enable-background="new 0 0 512 512" height="512" viewBox="0 0 512 512" width="512" xmlns="http://www.w3.org/2000/svg"><g><path d="m497 30h-45v-15c0-8.284-6.716-15-15-15s-15 6.716-15 15v15h-151v-15c0-8.284-6.716-15-15-15s-15 6.716-15 15v15h-151v-15c0-8.284-6.716-15-15-15s-15 6.716-15 15v15h-45c-8.284 0-15 6.716-15 15v452c0 8.284 6.716 15 15 15h482c8.284 0 15-6.716 15-15v-452c0-8.284-6.716-15-15-15zm-437 30v15c0 8.284 6.716 15 15 15s15-6.716 15-15v-15h151v15c0 8.284 6.716 15 15 15s15-6.716 15-15v-15h151v15c0 8.284 6.716 15 15 15s15-6.716 15-15v-15h30v61h-452v-61zm136 331c-24.813 0-45-20.187-45-45v-47.58c4.694 1.665 9.74 2.58 14.998 2.58h60.043c3.038 4.038 6.482 7.751 10.257 11.1-15.294 10.885-25.298 28.74-25.298 48.9 0 8.284 6.716 15 15 15s15-6.716 15-15c0-16.542 13.458-30 30-30h45c8.284 0 15-6.716 15-15s-6.716-15-15-15h-30c-19.556 0-36.239-12.539-42.43-30h102.43c8.271 0 15 6.729 15 15v60c0 24.813-20.187 45-45 45-8.284 0-15 6.716-15 15v76h-90v-76c0-8.284-6.716-15-15-15zm165-147.42c-4.695-1.665-9.742-2.58-15-2.58h-120c-8.284 0-15 6.716-15 15 0 5.136.521 10.152 1.509 15h-46.511c-8.27 0-14.998-6.729-14.998-15v-30c0-8.271 6.729-15 15-15h180c8.271 0 15 6.729 15 15zm-30 238.42v-62.507c34.191-6.969 60-37.274 60-73.493v-120c0-24.813-20.187-45-45-45h-180c-24.813 0-45 20.187-45 45v120c0 36.219 25.809 66.524 60 73.493v62.507h-151v-331h452v331z"/></g></svg>