<svg xmlns="http://www.w3.org/2000/svg" width="292.427" height="292.718" viewBox="0 0 292.427 292.718">
  <g id="_1" data-name="1" transform="translate(-293.688 1214.481)" opacity="0.2">
    <path id="Path_210" data-name="Path 210" d="M768.518-1213.02c-2.389,3.812-2.389,3.721-.459,4.823a162.744,162.744,0,0,1,16.627,11.758,125.781,125.781,0,0,1,46.482,97.42c0,4.96-.23,11.069-.505,13.6a135.127,135.127,0,0,1-8.543,34.31c-2.618,6.43-2.8,7.027-1.516,4.731.551-1.011,2.113-4.547,3.445-7.854a129.342,129.342,0,0,0-6.522-110.419,135.316,135.316,0,0,0-42.9-46.8c-2.159-1.47-4.134-2.8-4.456-2.986C769.8-1214.627,769.207-1214.122,768.518-1213.02Z" transform="translate(-319.336 0)" fill="#fff"/>
    <path id="Path_211" data-name="Path 211" d="M714.259-1213.219c-.138.459-.643,1.837-1.148,3.031-.781,2.067-.781,2.2,0,2.48a133.361,133.361,0,0,1,47.722,30.269,125.785,125.785,0,0,1,35.046,68.851,127,127,0,0,1-.965,46.344,62.085,62.085,0,0,0-1.1,6.614c.276.275,2.48-9.6,3.4-15.295a129.278,129.278,0,0,0-12.172-79.828c-12.264-24.435-33.208-45.242-58.149-57.781-3.353-1.7-11.758-5.466-12.172-5.466C714.626-1214,714.443-1213.632,714.259-1213.219Z" transform="translate(-290.063 -0.26)" fill="#fff"/>
    <path id="Path_212" data-name="Path 212" d="M820.821-1203.611l-2.021,2.388,1.1.873c6.384,5.1,16.168,15.662,21.909,23.655,12.631,17.591,20.164,37.066,23.058,59.572,1.01,7.578.735,23.976-.459,31.876a149.847,149.847,0,0,1-6.752,26.457,153.156,153.156,0,0,1-12.08,24.435,28.98,28.98,0,0,0-2.526,4.271c.689,0,8.957-13.6,11.85-19.521a132.061,132.061,0,0,0,12.539-40.19c1.148-7.349,1.148-26.823,0-34.448-4.088-27.145-14.606-49.652-32.979-70.55C830.7-1199.064,823.577-1206,822.98-1206A20.283,20.283,0,0,0,820.821-1203.611Z" transform="translate(-347.525 -4.585)" fill="#fff"/>
    <path id="Path_213" data-name="Path 213" d="M660.959-1201.45a18.1,18.1,0,0,0-.367,3.077l-.092,1.516,5.006,1.057a128.389,128.389,0,0,1,63.706,34.172,110.705,110.705,0,0,1,16.26,19.751c14.009,20.944,21.174,44.966,21.4,71.652l.092,7.578.413-5.971a144,144,0,0,0-1.516-27.375,128.805,128.805,0,0,0-19.934-50.892,111.3,111.3,0,0,0-16.076-19.612,131.109,131.109,0,0,0-43.451-29.075c-6.522-2.71-19.383-6.706-23.241-7.257C661.281-1203.057,661.235-1203.057,660.959-1201.45Z" transform="translate(-261.934 -6.242)" fill="#fff"/>
    <path id="Path_214" data-name="Path 214" d="M864.317-1185.424l-2.388,1.975,3.031,3.812a135.917,135.917,0,0,1,17.27,28.937,125.7,125.7,0,0,1,10.38,56.679c-1.378,29.855-14.009,59.021-35.688,82.125-1.929,2.067-2.526,2.848-1.286,1.7,10.059-9.37,20.715-23.792,27.283-37.02,18.1-36.194,17.913-79.094-.551-115.93-4.042-8.084-12.769-21.863-15.065-23.746C866.843-1187.307,866.154-1186.986,864.317-1185.424Z" transform="translate(-367.091 -14.827)" fill="#fff"/>
    <path id="Path_215" data-name="Path 215" d="M609.988-1180.885c0,3.858-.643,3.537,8.5,3.9,38.031,1.47,74.684,21.588,96.961,53.188,11.942,16.9,19.659,37.158,22.644,59.159.229,1.654.413,2.434.459,1.745.092-2.021-1.286-11.713-2.48-17.592a122.54,122.54,0,0,0-11.115-31.508,126.665,126.665,0,0,0-44.92-50.433,156.8,156.8,0,0,0-26.181-13.136c-10.472-3.812-25.078-7.074-34.678-7.763-2.159-.184-5.1-.413-6.522-.551l-2.664-.23Z" transform="translate(-234.617 -16.426)" fill="#fff"/>
    <path id="Path_216" data-name="Path 216" d="M877.008-1159.431a9.051,9.051,0,0,0-2.434,1.746,34.062,34.062,0,0,0,1.883,3.675,129.1,129.1,0,0,1,15.708,61.5,114.632,114.632,0,0,1-4.961,35.321,129.853,129.853,0,0,1-45.793,66c-4.455,3.353-5.052,4.088-1.056,1.332a117.543,117.543,0,0,0,18.143-15.341c20.669-20.715,32.749-44.921,37.02-74.225,1.01-6.752,1.148-25.124.23-32.151a150.344,150.344,0,0,0-8.13-32.8c-2.434-6.293-7.3-16.581-7.854-16.535A17.179,17.179,0,0,0,877.008-1159.431Z" transform="translate(-357.735 -28.97)" fill="#fff"/>
    <path id="Path_217" data-name="Path 217" d="M569.525-1157.4c-6.384.735-7.487.965-7.257,1.562a23.54,23.54,0,0,1,.551,3.215l.367,2.664,1.378-.276c9.048-1.837,27.467-2.434,37.3-1.24a130.229,130.229,0,0,1,51.489,17.729,135.774,135.774,0,0,1,31.049,26.87c8.589,10.2,17.592,25.951,22.414,39.041,2.526,6.844,2.94,7.4,1.1,1.424a131.094,131.094,0,0,0-50.892-68.9,128.678,128.678,0,0,0-54.474-21.22C595.659-1157.579,575.817-1158.13,569.525-1157.4Z" transform="translate(-208.805 -30.684)" fill="#fff"/>
    <path id="Path_218" data-name="Path 218" d="M556.675-1133.5c-5.236.367-15.066,1.653-19.291,2.526-4.088.827-15.892,3.95-16.627,4.363-.276.184,1.056,4.639,1.7,5.65.138.276,2.067-.184,4.272-.919a131.083,131.083,0,0,1,62.788-4.96,116.307,116.307,0,0,1,27.191,7.9c26.87,11.07,49.651,32.06,63.844,58.884a31.433,31.433,0,0,0,2.434,4.226c0-1.1-6.982-13.917-10.518-19.245a128.31,128.31,0,0,0-21.312-25.124,129.731,129.731,0,0,0-72.433-32.611A205.669,205.669,0,0,0,556.675-1133.5Z" transform="translate(-186.356 -43.736)" fill="#fff"/>
    <path id="Path_219" data-name="Path 219" d="M889.393-1124.616a16.177,16.177,0,0,0-2.848,1.24c-.23.23.092,1.7.735,3.353,1.837,4.869,4.777,17.316,5.833,24.849,1.24,8.267,1.47,24.205.505,31.83a126.865,126.865,0,0,1-12.539,41.568c-11.529,23.1-28.753,41.154-52.315,54.612a42.877,42.877,0,0,0-5.282,3.261c1.1,0,12.769-6.568,18.373-10.335a129.714,129.714,0,0,0,45.747-53.6c13.09-28.891,15.249-60.675,6.292-92.183a41.489,41.489,0,0,0-1.653-5.144C892.057-1125.351,890.771-1125.076,889.393-1124.616Z" transform="translate(-350.048 -48.259)" fill="#fff"/>
    <path id="Path_220" data-name="Path 220" d="M526.489-1110.627a142.349,142.349,0,0,0-50.019,13.32l-6.109,2.94,1.47,2.618c.827,1.47,1.562,2.756,1.654,2.8.046.092,3.169-1.378,6.936-3.261a123.1,123.1,0,0,1,29.993-11.069,125.01,125.01,0,0,1,66.922,2.71,127.661,127.661,0,0,1,55.99,36.469,51.9,51.9,0,0,1,4.777,5.741c0,.23-2.434-1.929-5.374-4.823-13.687-13.32-27.834-22.644-44.461-29.258-8.589-3.445-16.948-5.65-28.707-7.716-6.936-1.24-29.12-1.24-36.745-.046a136.2,136.2,0,0,0-61.18,25.538,26.431,26.431,0,0,0-3.537,2.8,13.821,13.821,0,0,0,1.975,2.618l2.021,2.434,2.71-2.2a130.716,130.716,0,0,1,55.025-26.227,132.6,132.6,0,0,1,51.4.23,131.507,131.507,0,0,1,55.944,27.421c1.47,1.24,2.526,2.434,2.388,2.664s.046.322.367.184,2.2,1.378,4.226,3.4,3.812,3.583,4,3.445c.184-.092,1.24.965,2.343,2.388,2.8,3.629,3.858,4.823,2.618,2.94-6.43-9.829-18.051-22.46-27.972-30.36-22.6-18.005-52.178-28.248-80.379-27.88C531.358-1110.765,527.638-1110.673,526.489-1110.627Z" transform="translate(-152.496 -56.048)" fill="#fff"/>
    <path id="Path_221" data-name="Path 221" d="M893.04-1083.351l-2.894.459.321,1.883c1.837,11.437,2.251,26.778.919,37.48a125.953,125.953,0,0,1-25.446,62.237c-4.961,6.522-16.581,18.051-23.241,23.011a132.627,132.627,0,0,1-37.756,19.98,26.411,26.411,0,0,0-4.547,1.7c.322.322,7.3-1.791,12.907-3.9,31.509-11.9,56.541-34.356,70.963-63.753a129.373,129.373,0,0,0,12.953-43.4c1.148-9.232.459-36.515-.965-36.24C896.117-1083.856,894.647-1083.627,893.04-1083.351Z" transform="translate(-337.573 -70.601)" fill="#fff"/>
    <path id="Path_222" data-name="Path 222" d="M528.93-1071.567a132.348,132.348,0,0,0-72.112,28.937c-4.961,3.95-16.811,15.295-16.719,16.076a11.989,11.989,0,0,0,2.3,2.3l2.342,1.883,3.583-4.042A136.841,136.841,0,0,1,483-1053.837a120.409,120.409,0,0,1,30.177-11.575c32.978-8.13,67.611-2.526,97.42,15.708a40.613,40.613,0,0,0,4.915,2.8c0-.6-11.713-7.762-17.316-10.61a134.016,134.016,0,0,0-46.712-13.871A205.319,205.319,0,0,0,528.93-1071.567Z" transform="translate(-142.765 -77.149)" fill="#fff"/>
    <path id="Path_223" data-name="Path 223" d="M532.217-1056.513c-18.832,2.159-32.7,6.247-48.09,14.193a135.585,135.585,0,0,0-49.468,44.553c-3.353,5.053-3.4,4.777.275,6.844l2.159,1.24.781-1.286c2.618-4.364,8.268-12.493,11.391-16.443a157.59,157.59,0,0,1,19.107-19.245,128.19,128.19,0,0,1,66.095-27.375,171.229,171.229,0,0,1,27.834.23c10.2,1.194,23.057,4.226,30.958,7.349a12.539,12.539,0,0,0,3.123.964c.505-.505-14.514-5.879-21.45-7.625-10.151-2.572-16.076-3.307-29.166-3.445C539.2-1056.651,533.089-1056.6,532.217-1056.513Z" transform="translate(-138.473 -85.359)" fill="#fff"/>
    <path id="Path_224" data-name="Path 224" d="M545.125-1045.579a133.931,133.931,0,0,0-43.313,10.7c-27.559,11.942-50.57,33.989-64.533,61.869-3.077,6.155-5.282,11.207-5.006,11.483a26.2,26.2,0,0,0,2.985,1.286l2.8,1.1,1.7-4.318c6.66-17.178,19.75-36.286,33.07-48.136q34.517-30.866,81.482-32.7a132.124,132.124,0,0,1,33.254,3.307,11.281,11.281,0,0,0,2.894.505c.367-.413-11.529-3.031-18-4C566.254-1045.4,550.361-1046.038,545.125-1045.579Z" transform="translate(-138.521 -91.241)" fill="#fff"/>
    <path id="Path_225" data-name="Path 225" d="M561.383-1038.342A129.741,129.741,0,0,0,489-1009.727a149.408,149.408,0,0,0-21.588,22.46,136.32,136.32,0,0,0-22.69,46.8c-2.159,8.222-2.2,7.946,1.148,8.589,3.077.6,3.674.459,3.674-1.056,0-.551.735-3.9,1.608-7.441a124.644,124.644,0,0,1,17.867-40.971,107.311,107.311,0,0,1,14.652-18.326,124.5,124.5,0,0,1,59.113-34.219c10.748-2.756,17.408-3.628,29.855-3.95,9.462-.275,10.243-.322,6.2-.6A116.754,116.754,0,0,0,561.383-1038.342Z" transform="translate(-144.444 -95.034)" fill="#fff"/>
    <path id="Path_226" data-name="Path 226" d="M752.556-1036.635a.93.93,0,0,0,.873-.046c.184-.138-.092-.275-.6-.23C752.326-1036.911,752.188-1036.773,752.556-1036.635Z" transform="translate(-311.595 -96.005)" fill="#fff"/>
    <path id="Path_227" data-name="Path 227" d="M730.376-1035.516a16.192,16.192,0,0,0,2.985,0c.781-.092.138-.184-1.516-.184S729.55-1035.608,730.376-1035.516Z" transform="translate(-299.52 -96.665)" fill="#fff"/>
    <path id="Path_228" data-name="Path 228" d="M894.287-1031.04c0,17.316-5.466,38.674-14.285,55.623-18.418,35.5-51.489,59.389-92.276,66.646-2.664.459-4.18.873-3.445.873,2.067.046,12.218-1.653,17.683-2.985,11.85-2.94,27.834-9.692,37.893-16.03a129.212,129.212,0,0,0,53.923-68.9,130.266,130.266,0,0,0,6.844-34.816l.321-5.374h-6.66Z" transform="translate(-328.761 -96.502)" fill="#fff"/>
    <path id="Path_229" data-name="Path 229" d="M578.246-1034.57c-42.073,5.052-78.45,29.166-98.844,65.589-9.737,17.408-16.03,39.363-16.765,58.792l-.138,3.674,3.123.138c1.7.092,3.077-.046,3.077-.23.046-3.674,1.1-16.627,1.654-20.072,4.318-27.742,16.306-51.672,35.321-70.78a112.772,112.772,0,0,1,19.98-16.4c15.571-10.381,33.759-17.178,54.428-20.3,3.215-.505,3.629-.643,1.837-.643C580.681-1034.754,579.027-1034.662,578.246-1034.57Z" transform="translate(-154.877 -97.151)" fill="#fff"/>
    <path id="Path_230" data-name="Path 230" d="M778.556-1033.635a.93.93,0,0,0,.873-.046c.184-.138-.092-.275-.6-.23C778.326-1033.911,778.188-1033.773,778.556-1033.635Z" transform="translate(-325.653 -97.627)" fill="#fff"/>
    <path id="Path_231" data-name="Path 231" d="M791.582-1031.541a3.125,3.125,0,0,0,1.148.459c.276,0,.138-.23-.229-.459a2.852,2.852,0,0,0-1.148-.459C791.123-1032,791.215-1031.77,791.582-1031.541Z" transform="translate(-332.616 -98.665)" fill="#fff"/>
    <path id="Path_232" data-name="Path 232" d="M701.556-1028.635a.93.93,0,0,0,.873-.046c.184-.138-.092-.275-.6-.23C701.326-1028.911,701.188-1028.773,701.556-1028.635Z" transform="translate(-284.02 -100.331)" fill="#fff"/>
    <path id="Path_233" data-name="Path 233" d="M576.058-1024.553c-13.642,4.547-29.58,13.457-41.2,23.011-2.572,2.159-7.349,6.614-10.518,9.875q-28.454,29.419-34.908,71.561a158.3,158.3,0,0,0-.689,33.024c.367,3.766.781,6.89.827,6.936a22.214,22.214,0,0,0,3.261-.367l3.169-.505-.276-1.378c-1.7-8.5-2.388-27.88-1.24-36.791,2.985-23.609,11.023-43.956,24.435-61.777,15.249-20.256,35.826-35.275,60.583-44.14C586.53-1027.631,584.1-1027.264,576.058-1024.553Z" transform="translate(-168.765 -101.473)" fill="#fff"/>
    <path id="Path_234" data-name="Path 234" d="M681.095-1020.257c-.643.367-.919.643-.689.643a4.715,4.715,0,0,0,1.608-.643c.643-.368.965-.643.689-.643A5.092,5.092,0,0,0,681.095-1020.257Z" transform="translate(-272.653 -104.667)" fill="#fff"/>
    <path id="Path_235" data-name="Path 235" d="M580.991-1013.509c-32.933,17.913-56.036,47.585-64.809,83.09-2.848,11.575-3.583,17.821-3.583,30.544.046,12.172.643,18.51,2.756,28.615a146.706,146.706,0,0,0,3.812,14.744l.459,1.148,2.572-.873a25.884,25.884,0,0,0,2.94-1.148c.276-.138-.184-2.067-.919-4.272a162.628,162.628,0,0,1-5.512-23.517c-1.378-9-1.516-26.824-.276-35.137a124,124,0,0,1,7.946-29.488,120.941,120.941,0,0,1,27.972-42.165c9.645-9.692,17.959-15.892,31.463-23.563,1.378-.827,2.343-1.47,2.067-1.47A75.911,75.911,0,0,0,580.991-1013.509Z" transform="translate(-181.966 -106.776)" fill="#fff"/>
    <path id="Path_236" data-name="Path 236" d="M587.229-1001.545c-7.716,5.787-20.577,18.51-26.043,25.859a129.855,129.855,0,0,0-24.941,59.711c-1.056,6.66-1.378,20.853-.735,28.477a136.79,136.79,0,0,0,13.32,48.457l2.8,5.833,2.618-1.47c1.47-.827,2.71-1.562,2.8-1.608.092-.092-1.7-3.9-4-8.543a115.424,115.424,0,0,1-9.049-23.333,127.573,127.573,0,0,1-1.286-62.512,128.817,128.817,0,0,1,24.527-50.065,153.861,153.861,0,0,1,20.669-20.623c5.145-4.088,5.833-4.639,5.512-4.639C593.292-1006,590.536-1003.979,587.229-1001.545Z" transform="translate(-194.175 -112.723)" fill="#fff"/>
    <path id="Path_237" data-name="Path 237" d="M593.476-988.937a122.058,122.058,0,0,0-15.571,18.97,131.289,131.289,0,0,0-20.669,53.51c-1.056,6.522-1.424,23.563-.689,30.59,2.526,24.895,11.437,47.493,27.1,68.713A10.867,10.867,0,0,0,585.484-815a19.269,19.269,0,0,0,2.618-1.975l2.343-1.975-2.526-3.169a129.262,129.262,0,0,1-27.513-65.268,152.152,152.152,0,0,1,.046-29.993,132.708,132.708,0,0,1,17.775-50.754A144.756,144.756,0,0,1,594.946-989.9c2.664-2.8,4.777-5.1,4.685-5.1C599.493-995,596.737-992.244,593.476-988.937Z" transform="translate(-205.52 -118.671)" fill="#fff"/>
    <path id="Path_238" data-name="Path 238" d="M889.088-984.916c0,1.745-3.031,13.5-4.869,18.924-13.044,38.628-42.119,67.519-80.793,80.288a128.973,128.973,0,0,1-40.144,6.338c-7.028.092-7.073.092-3.261.505,4.915.505,16.4.138,23.884-.781A128.712,128.712,0,0,0,856.8-914.091a144.511,144.511,0,0,0,16.489-18.832,149,149,0,0,0,16.9-32.473c2.021-5.65,5.328-17.27,5.328-18.832,0-.551-.643-.873-2.3-1.24C889.731-986.2,889.088-986.156,889.088-984.916Z" transform="translate(-314.375 -123.564)" fill="#fff"/>
    <path id="Path_239" data-name="Path 239" d="M595.812-963.707a133.047,133.047,0,0,0-18.924,45.38c-2.113,10.151-2.388,13.182-2.388,26.181,0,10.7.184,13.32,1.056,19.062,4.547,28.523,17.316,53.464,37.939,74.179l5.925,5.925,2.251-2.434,2.25-2.435-1.975-1.653c-3.445-2.8-12.861-12.585-16.535-17.086a126.358,126.358,0,0,1-16.995-132.052,148.393,148.393,0,0,1,9.554-17.591,23.025,23.025,0,0,0,2.2-3.766C600.084-970,598.109-967.152,595.812-963.707Z" transform="translate(-215.434 -132.188)" fill="#fff"/>
    <path id="Path_240" data-name="Path 240" d="M882.1-947.319a4.883,4.883,0,0,0,.413,1.608c.23.6.413.643.413.23a4.883,4.883,0,0,0-.413-1.608C882.284-947.687,882.1-947.733,882.1-947.319Z" transform="translate(-381.75 -144.305)" fill="#fff"/>
    <path id="Path_241" data-name="Path 241" d="M884.089-940.17c0,.505.138.643.276.276a.931.931,0,0,0-.046-.873C884.181-940.951,884.043-940.675,884.089-940.17Z" transform="translate(-382.821 -147.963)" fill="#fff"/>
    <path id="Path_242" data-name="Path 242" d="M599.421-935.8a149.016,149.016,0,0,0-9.186,32.749c-1.011,6.338-1.424,23.425-.735,30.36a129.121,129.121,0,0,0,36.561,78.45,141.186,141.186,0,0,0,21.817,18.372c5.42,3.675,4.731,3.721,7.257-.459l1.056-1.745-1.286-.781c-11.115-6.8-21.771-15.249-29.028-23.012a117.683,117.683,0,0,1-13.6-17.132,125.757,125.757,0,0,1-17.224-101c1.286-5.144,5.053-16.719,6.017-18.51.276-.505.413-1.011.276-1.1C601.212-939.747,600.385-938,599.421-935.8Z" transform="translate(-223.36 -148.616)" fill="#fff"/>
    <path id="Path_243" data-name="Path 243" d="M878.486-932.87a156.791,156.791,0,0,1-10.932,22.828,126.584,126.584,0,0,1-90.484,60.353,136.355,136.355,0,0,1-44.048-1.332,29.949,29.949,0,0,0-4.731-.735c-.276.275,7.257,1.929,13.458,2.985,24.16,4.042,46.987,1.516,70.32-7.762a97.211,97.211,0,0,0,17.041-8.589c20.944-12.585,36.882-29.4,48.916-51.581,3.031-5.558,6.844-14.331,6.431-14.7a20.648,20.648,0,0,0-3.031-1.332C878.945-933.651,878.762-933.651,878.486-932.87Z" transform="translate(-298.584 -151.956)" fill="#fff"/>
    <path id="Path_244" data-name="Path 244" d="M612.089-925.17c0,.505.138.643.276.276a.931.931,0,0,0-.046-.873C612.181-925.951,612.043-925.675,612.089-925.17Z" transform="translate(-235.754 -156.073)" fill="#fff"/>
    <path id="Path_245" data-name="Path 245" d="M603.871-914.516c-7.946,34.724-2.985,67.886,14.606,97.466,13.779,23.1,34.54,41.338,60.583,53.05a37.493,37.493,0,0,0,5.374,2.159c.551-.505,2.342-5.65,2.113-5.879a45.522,45.522,0,0,0-4.226-1.791A126.641,126.641,0,0,1,616-828.763c-9.783-18.786-14.193-37.066-14.193-58.792a112.292,112.292,0,0,1,2.48-26.364,29,29,0,0,0,.735-4.685A22.623,22.623,0,0,0,603.871-914.516Z" transform="translate(-229.327 -159.975)" fill="#fff"/>
    <path id="Path_246" data-name="Path 246" d="M609.2-901.173c0,.873.092,1.24.23.781a4.725,4.725,0,0,0,0-1.608C609.292-902.413,609.2-902.045,609.2-901.173Z" transform="translate(-234.196 -168.863)" fill="#fff"/>
    <path id="Path_247" data-name="Path 247" d="M891.286-893.922c0,1.01.092,1.378.184.781a6.163,6.163,0,0,0,0-1.837C891.332-895.392,891.24-894.932,891.286-893.922Z" transform="translate(-386.711 -172.669)" fill="#fff"/>
    <path id="Path_248" data-name="Path 248" d="M607.425-887.381A133.654,133.654,0,0,0,617.714-830.2a137.26,137.26,0,0,0,17.821,29.625,166.2,166.2,0,0,0,20.3,20.3,139.28,139.28,0,0,0,42.716,22.782c4.823,1.516,13.32,3.766,14.376,3.766.689,0,1.975-5.144,1.516-5.879a12.533,12.533,0,0,0-3.583-1.01,148.22,148.22,0,0,1-22.047-6.476A124.389,124.389,0,0,1,645-795.748a123.122,123.122,0,0,1-32.795-57.46c-2.664-10.381-3.721-18.418-4.088-30.728l-.276-10.564Z" transform="translate(-233.156 -173.01)" fill="#fff"/>
    <path id="Path_249" data-name="Path 249" d="M860.072-878.814c-10.243,16.627-20.3,27.834-34.724,38.72a126.106,126.106,0,0,1-62.6,24.344,165.212,165.212,0,0,1-27.788-.23c-12.08-1.516-27.467-5.741-37.48-10.335a25.462,25.462,0,0,0-4.18-1.7c-.184.23,8.681,4.272,13.642,6.2a148.582,148.582,0,0,0,29.855,7.762c7.533,1.148,27.375,1.148,34.908,0,22.506-3.536,41.843-11.391,58.792-23.884A141.734,141.734,0,0,0,863.1-871.786c3.583-5.328,3.583-5.006-.092-7.073l-2.159-1.24Z" transform="translate(-279.665 -180.796)" fill="#fff"/>
    <path id="Path_250" data-name="Path 250" d="M610.089-878.17c0,.505.138.643.276.275a.93.93,0,0,0-.046-.873C610.181-878.951,610.043-878.675,610.089-878.17Z" transform="translate(-234.672 -181.486)" fill="#fff"/>
    <path id="Path_251" data-name="Path 251" d="M611.5-867.507c.138,2.021.643,6.155,1.194,9.186a129.253,129.253,0,0,0,56.358,86.994,154.145,154.145,0,0,0,26.962,13.55c12.493,4.639,29.993,8.084,40.879,8.084h2.94v-5.879l-4.915-.276c-20.623-1.194-37.709-5.466-53.6-13.458a98.605,98.605,0,0,1-13.871-7.992c-26.456-17.637-45.1-44.369-52.958-75.97-.735-3.077-2.159-10.886-2.986-16.535C611.36-870.584,611.406-869.528,611.5-867.507Z" transform="translate(-235.391 -186.224)" fill="#fff"/>
    <path id="Path_252" data-name="Path 252" d="M617.089-848.17c0,.505.138.643.276.276a.93.93,0,0,0-.046-.873C617.181-848.951,617.043-848.675,617.089-848.17Z" transform="translate(-238.457 -197.706)" fill="#fff"/>
    <path id="Path_253" data-name="Path 253" d="M618.1-844.519c-.046.919,2.8,9.646,4.869,14.928a141.722,141.722,0,0,0,21.4,36.056,136.162,136.162,0,0,0,30.452,26.456,155.349,155.349,0,0,0,26.364,12.539,140.873,140.873,0,0,0,27.559,6.338c5.787.781,25.4.781,31.692-.046,2.664-.322,4.869-.6,4.869-.643a27.657,27.657,0,0,0-.414-3.215l-.505-3.169-1.7.275c-19.934,3.169-42.3,1.791-59.894-3.72a123.471,123.471,0,0,1-50.938-30.452c-14.514-14.147-24.389-29.763-31.784-50.294A47.35,47.35,0,0,0,618.1-844.519Z" transform="translate(-239.008 -200.025)" fill="#fff"/>
    <path id="Path_254" data-name="Path 254" d="M626-828.712c0,.873,7.073,14.239,9.875,18.648a129.277,129.277,0,0,0,38.49,39c27.972,18.418,62.558,25.124,96.547,18.648A150.587,150.587,0,0,0,788-756.784l1.01-.367-.918-2.664a16.137,16.137,0,0,0-1.24-2.986c-.184-.184-2.8.459-5.833,1.424-15.479,5.052-34.954,7.395-49.606,6.017-17.454-1.607-31-5.374-45.7-12.677a116.084,116.084,0,0,1-33.3-23.838c-3.583-3.537-7.854-8.176-9.554-10.335a151.551,151.551,0,0,1-13.825-21.128A48.747,48.747,0,0,0,626-828.712Z" transform="translate(-243.28 -208.576)" fill="#fff"/>
    <path id="Path_255" data-name="Path 255" d="M844.154-822.337a134.507,134.507,0,0,1-37.939,28.891,127.4,127.4,0,0,1-126.4-7.487,24.435,24.435,0,0,0-3.812-2.2c0,.735,13.825,9.094,20.439,12.355,12.356,6.109,22.46,9.37,37.342,12.034,6.155,1.1,7.854,1.24,19.383,1.24,9.875.046,13.825-.138,18.143-.781a133.477,133.477,0,0,0,64.487-28.018,197.739,197.739,0,0,0,14.744-13.779l2.48-2.664L851.64-823.9c-.735-.6-1.837-1.516-2.48-1.975l-1.148-.827Z" transform="translate(-270.314 -209.669)" fill="#fff"/>
    <path id="Path_256" data-name="Path 256" d="M640.376-806.822c22.231,31.555,54.153,50.984,91.541,55.806,7.9,1.01,25.4.735,33.53-.505a144.774,144.774,0,0,0,44.232-14.147l2.2-1.1-1.47-2.618c-.781-1.424-1.516-2.664-1.562-2.756A85.6,85.6,0,0,0,801-768.469c-26.5,13.136-54.107,17.041-81.941,11.575A129.259,129.259,0,0,1,641.57-805.9C638.034-810.634,637.207-811.231,640.376-806.822Z" transform="translate(-249.985 -218.799)" fill="#fff"/>
    <path id="Path_257" data-name="Path 257" d="M661.724-785.292a129.32,129.32,0,0,0,53.923,31.876,131.163,131.163,0,0,0,84.422-3.72,190.9,190.9,0,0,0,21.679-10.84c4.18-2.572,13.6-9.186,13.6-9.554a22.094,22.094,0,0,0-2.021-2.618l-2.021-2.388-3.812,3.031a131.04,131.04,0,0,1-56.909,25.813,109.166,109.166,0,0,1-22.644,1.929c-29.3,0-56.909-9.967-80.563-29.12-1.837-1.47-3.307-2.894-3.215-3.169.046-.276-.322-.551-.781-.643-.505-.046-2.159-1.332-3.675-2.8C658.141-788.966,659.06-787.956,661.724-785.292Z" transform="translate(-261.09 -230.5)" fill="#fff"/>
    <path id="Path_258" data-name="Path 258" d="M796.556-762.635a.93.93,0,0,0,.873-.046c.184-.138-.092-.276-.6-.229C796.326-762.91,796.188-762.773,796.556-762.635Z" transform="translate(-335.385 -244.154)" fill="#fff"/>
    <path id="Path_259" data-name="Path 259" d="M792.556-761.635a.931.931,0,0,0,.873-.046c.184-.138-.092-.275-.6-.23C792.326-761.911,792.188-761.773,792.556-761.635Z" transform="translate(-333.222 -244.695)" fill="#fff"/>
    <path id="Path_260" data-name="Path 260" d="M724.556-756.635a.93.93,0,0,0,.873-.046c.184-.138-.092-.275-.6-.23C724.326-756.911,724.188-756.773,724.556-756.635Z" transform="translate(-296.455 -247.398)" fill="#fff"/>
    <path id="Path_261" data-name="Path 261" d="M775.461-756.53a6.155,6.155,0,0,0,1.837,0c.413-.138-.046-.23-1.057-.184C775.232-756.714,774.864-756.622,775.461-756.53Z" transform="translate(-323.936 -247.503)" fill="#fff"/>
    <path id="Path_262" data-name="Path 262" d="M747.491-754.516a7.78,7.78,0,0,0,2.067,0c.551-.092.092-.184-1.057-.184S746.894-754.608,747.491-754.516Z" transform="translate(-308.827 -248.598)" fill="#fff"/>
  </g>
</svg>
