<svg id="Component_107_1" data-name="Component 107 – 1" xmlns="http://www.w3.org/2000/svg" width="25" height="25" viewBox="0 0 25 25">
  <path id="Path_4" data-name="Path 4" d="M3.75,3.75A11.348,11.348,0,0,1,12.5,0a11.348,11.348,0,0,1,8.75,3.75A11.348,11.348,0,0,1,25,12.5a11.348,11.348,0,0,1-3.75,8.75A11.348,11.348,0,0,1,12.5,25a11.348,11.348,0,0,1-8.75-3.75A12.475,12.475,0,0,1,0,12.5,11.348,11.348,0,0,1,3.75,3.75ZM14.167,22.5q1.25,0,3.125-1.875A9.1,9.1,0,0,0,18.75,16.25a3.45,3.45,0,0,0-1.042-2.5A3.667,3.667,0,0,0,15,12.5H12.917a6.083,6.083,0,0,1-1.875-.417,1.891,1.891,0,0,1-.625-1.458,1.082,1.082,0,0,1,.417-.833,1.579,1.579,0,0,1,.833-.417A1.422,1.422,0,0,1,12.708,10c.417.208.625.417.833.417a1.253,1.253,0,0,0,.833-.208,1.253,1.253,0,0,0,.208-.833,3.315,3.315,0,0,0-1.042-2.083,8.617,8.617,0,0,0,1.042-3.958.448.448,0,0,0-.417-.417A6.44,6.44,0,0,0,12.5,2.5,10.421,10.421,0,0,0,7.083,4.167,5.245,5.245,0,0,0,5.208,8.333a5.334,5.334,0,0,0,1.667,3.958,5.692,5.692,0,0,0,3.958,1.667h0v.833a2.675,2.675,0,0,0,.833,2.083,3.034,3.034,0,0,0,1.875,1.25v3.75c0,.208,0,.208.208.417S13.958,22.5,14.167,22.5Z" fill="#f36523"/>
</svg>
