<svg xmlns="http://www.w3.org/2000/svg" width="18.294" height="17.425" viewBox="0 0 18.294 17.425">
  <path id="Path_345" data-name="Path 345" d="M16.266,19.416a.917.917,0,0,1-.422-.1L11.17,16.868,6.495,19.315a.917.917,0,0,1-1.329-.972l.917-5.161L2.306,9.516a.9.9,0,0,1,.513-1.54l5.225-.761,2.3-4.7a.917.917,0,0,1,1.65,0l2.328,4.693,5.225.761a.9.9,0,0,1,.513,1.54l-3.777,3.667.917,5.161a.907.907,0,0,1-.935,1.082Zm-5.1-4.492a.843.843,0,0,1,.422.1l3.456,1.833L14.387,13a.917.917,0,0,1,.266-.816L17.4,9.5l-3.85-.568a.917.917,0,0,1-.651-.513L11.17,4.979,9.437,8.416a.917.917,0,0,1-.687.5L4.9,9.48l2.75,2.686a.917.917,0,0,1,.266.816l-.66,3.813,3.456-1.833a.843.843,0,0,1,.458-.037Z" transform="translate(-2.036 -1.996)" fill="#f36523"/>
</svg>
