<svg xmlns="http://www.w3.org/2000/svg" width="99.609" height="100" viewBox="0 0 99.609 100">
  <g id="students" transform="translate(-1)">
    <path id="Path_352" data-name="Path 352" d="M90.637,19.687a11.719,11.719,0,1,0-17.165,0,18.691,18.691,0,0,0-7.042,6.449,18.69,18.69,0,0,0-7.042-6.449,11.719,11.719,0,1,0-17.165,0,18.69,18.69,0,0,0-7.042,6.449,18.69,18.69,0,0,0-7.042-6.449,11.719,11.719,0,1,0-17.165,0A18.572,18.572,0,0,0,1,36.133V55.664a2.93,2.93,0,0,0,2.93,2.93H7.836a11.672,11.672,0,0,0,3.136,7.968A18.572,18.572,0,0,0,1,83.008V97.07A2.93,2.93,0,0,0,3.93,100H97.68a2.93,2.93,0,0,0,2.93-2.93V83.008a18.572,18.572,0,0,0-9.972-16.446,11.672,11.672,0,0,0,3.136-7.968H97.68a2.93,2.93,0,0,0,2.93-2.93V36.133A18.572,18.572,0,0,0,90.637,19.687ZM76.2,11.719a5.859,5.859,0,1,1,5.859,5.859A5.866,5.866,0,0,1,76.2,11.719Zm5.859,11.719A12.712,12.712,0,0,1,94.713,35.156H69.4A12.712,12.712,0,0,1,82.055,23.438ZM44.945,11.719A5.859,5.859,0,1,1,50.8,17.578,5.866,5.866,0,0,1,44.945,11.719ZM50.8,23.438A12.712,12.712,0,0,1,63.463,35.156H38.146A12.712,12.712,0,0,1,50.8,23.438ZM13.7,11.719a5.859,5.859,0,1,1,5.859,5.859A5.866,5.866,0,0,1,13.7,11.719Zm5.859,11.719A12.712,12.712,0,0,1,32.213,35.156H6.9A12.712,12.712,0,0,1,19.555,23.438ZM13.7,58.594a5.859,5.859,0,1,1,5.859,5.859A5.866,5.866,0,0,1,13.7,58.594Zm17.578,0h7.813a11.672,11.672,0,0,0,3.136,7.968,18.69,18.69,0,0,0-7.042,6.449,18.69,18.69,0,0,0-7.042-6.449A11.672,11.672,0,0,0,31.273,58.594Zm13.672,0A5.859,5.859,0,1,1,50.8,64.453,5.866,5.866,0,0,1,44.945,58.594Zm17.578,0h7.813a11.672,11.672,0,0,0,3.136,7.968,18.691,18.691,0,0,0-7.042,6.449,18.69,18.69,0,0,0-7.042-6.449A11.672,11.672,0,0,0,62.523,58.594ZM50.8,70.313A12.712,12.712,0,0,1,63.463,82.031H38.146A12.712,12.712,0,0,1,50.8,70.313Zm-31.25,0A12.712,12.712,0,0,1,32.213,82.031H6.9A12.712,12.712,0,0,1,19.555,70.313Zm75.2,23.828H6.859v-6.25H94.75Zm-.037-12.109H69.4a12.7,12.7,0,0,1,25.316,0ZM76.2,58.594a5.859,5.859,0,1,1,5.859,5.859A5.866,5.866,0,0,1,76.2,58.594ZM94.75,52.734H92.2a11.707,11.707,0,0,0-20.284,0H60.947a11.707,11.707,0,0,0-20.284,0H29.7a11.707,11.707,0,0,0-20.284,0H6.859V41.016H94.75Z" fill="#fff"/>
  </g>
</svg>
