<svg xmlns="http://www.w3.org/2000/svg" width="114.343" height="100" viewBox="0 0 114.343 100">
  <g id="class" transform="translate(0.001 0)">
    <path id="Path_353" data-name="Path 353" d="M103.817,0H53.583A10.538,10.538,0,0,0,43.057,10.526V42.75L33.73,38.112c-.315-.157-.635-.305-.958-.446a15.907,15.907,0,1,0-21.947.973A21.2,21.2,0,0,0,0,57.171V67.936a10.543,10.543,0,0,0,7.176,9.98V96.641a3.35,3.35,0,0,0,3.35,3.35H32.054a3.35,3.35,0,0,0,3.35-3.35V59l10.725,5.362a9.19,9.19,0,0,0,12.19-3.843H70.329L57.611,95.5a3.35,3.35,0,0,0,6.3,2.29L77.458,60.521h2.348L93.5,97.8a3.35,3.35,0,0,0,6.289-2.31L86.943,60.521h16.873A10.526,10.526,0,0,0,114.343,50V10.526A10.525,10.525,0,0,0,103.817,0ZM12.082,26.673A9.208,9.208,0,1,1,21.29,35.88a9.219,9.219,0,0,1-9.208-9.208ZM52.593,56.939c-.009.024-.017.05-.025.075a2.477,2.477,0,0,1-3.442,1.357c-6.37-3.187-15.574-7.785-15.574-7.785a3.351,3.351,0,0,0-4.847,3V93.291H13.875V75.112a3.351,3.351,0,0,0-3.35-3.35A3.83,3.83,0,0,1,6.7,67.936V57.172a14.593,14.593,0,0,1,14.59-14.59h2.96a14.6,14.6,0,0,1,6.492,1.528s16.616,8.263,20.848,10.371a2.009,2.009,0,0,1,1,2.46ZM107.643,50a3.8,3.8,0,0,1-1.119,2.706,3.851,3.851,0,0,1-2.707,1.12H59.046c-.006-.018-.01-.037-.017-.054l8.314-16.626a3.35,3.35,0,0,0-5.992-3l-7.091,14.18c-1.322-.659-2.858-1.424-4.5-2.242V10.526A3.83,3.83,0,0,1,53.583,6.7h50.234a3.849,3.849,0,0,1,2.708,1.122,3.8,3.8,0,0,1,1.118,2.7Zm0,0" fill="#fff"/>
    <path id="Path_354" data-name="Path 354" d="M296.3,64.266H260.416a3.35,3.35,0,0,0,0,6.7H296.3a3.35,3.35,0,0,0,0-6.7Zm0,0" transform="translate(-199.657 -49.914)" fill="#fff"/>
    <path id="Path_355" data-name="Path 355" d="M358.689,120.5H340.748a3.35,3.35,0,0,0,0,6.7h17.941a3.35,3.35,0,0,0,0-6.7Zm0,0" transform="translate(-262.049 -93.589)" fill="#fff"/>
    <path id="Path_356" data-name="Path 356" d="M358.689,176.734H340.748a3.35,3.35,0,0,0,0,6.7h17.941a3.35,3.35,0,0,0,0-6.7Zm0,0" transform="translate(-262.049 -137.265)" fill="#fff"/>
  </g>
</svg>
