<svg id="Component_42_2" data-name="Component 42 – 2" xmlns="http://www.w3.org/2000/svg" width="29.142" height="29.142" viewBox="0 0 29.142 29.142">
  <rect id="Rectangle_393" data-name="Rectangle 393" width="29.142" height="29.142" fill="none"/>
  <path id="Path_2" data-name="Path 2" d="M47.228,25.637c11.009,0,17-9.066,17-17v-.81a13.161,13.161,0,0,0,2.914-3.076,13.439,13.439,0,0,1-3.4.971,6.3,6.3,0,0,0,2.59-3.238,14.849,14.849,0,0,1-3.724,1.457A5.782,5.782,0,0,0,58.238,2a6.083,6.083,0,0,0-5.99,5.99,3.157,3.157,0,0,0,.162,1.3A16.739,16.739,0,0,1,40.1,2.971a6.2,6.2,0,0,0-.81,3.076,6.433,6.433,0,0,0,2.59,5.019,5.458,5.458,0,0,1-2.752-.809h0a5.917,5.917,0,0,0,4.857,5.828,4.991,4.991,0,0,1-1.619.162,2.755,2.755,0,0,1-1.133-.162A6.133,6.133,0,0,0,46.9,20.295a12.224,12.224,0,0,1-7.447,2.59A4.483,4.483,0,0,1,38,22.723a15.282,15.282,0,0,0,9.228,2.914" transform="translate(-38 1.642)" fill="#fff" fill-rule="evenodd"/>
</svg>
